<svg width="140" height="207" viewBox="0 0 140 207" fill="none" xmlns="http://www.w3.org/2000/svg">
<path fill-rule="evenodd" clip-rule="evenodd" d="M140 69.697C140 31.2044 108.66 0 70 0C31.34 0 0 31.2044 0 69.697V207H140V69.697Z" fill="#202020"/>
<path d="M84 82.7963C84 68.5479 72.4316 57 58.1641 57C43.8972 57 32.3287 68.5492 32.3287 82.7963C32.3287 92.5644 37.7693 101.065 45.7936 105.444L32 156.026H83.9299L70.1852 105.62C78.3967 101.296 84 92.7032 84 82.7963Z" fill="#007EBE"/>
<path d="M95 82.7963C95 68.5479 83.4316 57 69.1641 57C54.8972 57 43.3287 68.5492 43.3287 82.7963C43.3287 92.5644 48.7693 101.065 56.7936 105.444L43 156.026H94.9299L81.1852 105.62C89.3967 101.296 95 92.7032 95 82.7963Z" fill="#FDA02C"/>
<path d="M108 82.7963C108 68.5479 96.4316 57 82.1641 57C67.8972 57 56.3287 68.5492 56.3287 82.7963C56.3287 92.5644 61.7693 101.065 69.7936 105.444L56 156.026H107.93L94.1852 105.62C102.397 101.296 108 92.7032 108 82.7963Z" fill="#D63D1D"/>
</svg>
