<svg width="821" height="1294" viewBox="0 0 821 1294" fill="none" xmlns="http://www.w3.org/2000/svg">
<g clip-path="url(#clip0_112_223)">
<path d="M509.141 1260.36C508.104 1262.2 505.333 1261.68 505.027 1259.6C504.194 1253.84 503.385 1247.13 502.799 1239.62C502.382 1234.3 501.011 1215.04 502.799 1191.73C508.661 1115.38 542.642 1048.88 593.159 992.668C614.365 969.071 631.554 948.954 643.923 934.197C701.726 865.228 741.143 787.944 752.364 697.83C755.348 673.841 757.785 652.929 752.902 625.736C748.071 598.834 738.295 578.101 730.848 564.938C746.628 590.585 762.402 616.232 778.182 641.874C789.935 659.782 805.439 688.143 814.217 725.808C820.879 754.382 821.596 779.395 820.671 797.903C819.91 824.902 815.545 864.041 798.617 907.663C787.411 936.542 773.686 959.689 761.506 977.068C746.792 997.602 728.857 1020.11 707.181 1043.24C652.508 1101.58 585.79 1148.45 538.834 1213.8C527.12 1230.1 517.319 1245.81 509.141 1260.36Z" fill="url(#paint0_linear_112_223)"/>
<path d="M417.676 1151.35C418.398 1151.78 419.211 1150.97 418.775 1150.24C415.525 1144.83 411.847 1137.24 409.75 1127.71C407.443 1117.22 408.078 1109.09 409.212 1095.96C410.002 1086.79 411.61 1074.43 415.127 1059.92C420.113 1043.28 427.535 1023.31 438.794 1001.81C450.102 980.214 462.345 962.685 473.217 949.081C500.289 913.572 527.362 878.062 554.435 842.553C569.139 823.585 585.044 800.191 599.899 772.218C635.881 704.456 660.381 626.12 642.644 549.325C637.872 531.02 631.181 510.239 621.666 487.989C609.937 460.564 596.769 437.592 584.555 419.123C589.371 430.826 593.944 444.891 596.924 461.087C604.68 503.226 597.81 538.89 591.546 560.622C586.391 579.454 578.785 601.709 567.341 625.723C545.608 671.332 514.877 711.493 486.738 753.177C456.938 797.312 426.731 841.342 397.919 886.127C393.587 892.858 387.512 902.609 380.705 914.643C367.886 937.309 360.328 950.675 354.887 968.442C341.496 1012.2 351.83 1057.27 371.558 1097.57C383.888 1122.76 395.351 1134.28 402.754 1140.61C408.253 1145.31 413.461 1148.82 417.671 1151.34L417.676 1151.35Z" fill="url(#paint1_linear_112_223)"/>
<path d="M363.56 1293.93C364.722 1294.34 365.628 1292.89 364.761 1292.02C341.782 1268.97 324.283 1248.04 311.861 1232.09C289.027 1202.76 265.831 1172.97 247.856 1128.79C235.274 1097.87 229.65 1070.72 226.878 1052.39C225.304 1035.36 224.441 1011.15 228.162 982.531C232.566 948.635 241.379 923.987 249.484 901.747C257.192 880.578 268.999 852.692 287.123 821.574C297.331 801.481 312.234 774.486 332.839 744.095C344.093 727.496 351.123 718.618 369.412 693.518C420.597 623.275 481.676 549.674 508.719 465.396C511.36 457.171 513.55 449.31 515.371 441.915C522.038 414.892 522.876 386.729 517.576 359.406C517.164 357.288 516.723 355.136 516.248 352.95C509.422 321.551 499.083 298.889 487.741 274.396C480.513 258.781 470.193 238.349 456.008 215.212C441.362 187.602 424.279 158.389 404.343 128.254C371.016 77.8858 336.584 35.3299 304.332 0C320.62 15.9154 344.815 44.8046 354.892 86.6238C362.237 117.112 359.301 142.938 357.203 161.364C353.773 191.533 345.842 215.668 339.292 231.893C326.642 262.929 312.428 295.061 296.43 328.03C242.774 438.595 173.784 541.992 111.102 647.56C62.7369 729.023 6.1401 810.984 0.442624 908.73C-0.754039 929.294 -0.153285 960.96 10.6603 997.506C20.8343 1031.89 36.1923 1057.56 47.7714 1073.9C63.1778 1095.92 85.9193 1124.68 117.691 1154.07C124.382 1160.26 154.202 1187.5 207.514 1220.25C243.733 1242.5 295.834 1270.38 363.56 1293.93V1293.93Z" fill="url(#paint2_linear_112_223)"/>
</g>
<defs>
<linearGradient id="paint0_linear_112_223" x1="380.599" y1="1068.31" x2="856.904" y2="759.102" gradientUnits="userSpaceOnUse">
<stop stop-color="#100201"/>
<stop offset="0.08" stop-color="#320201"/>
<stop offset="0.13" stop-color="#4E0201"/>
<stop offset="0.18" stop-color="#720101"/>
<stop offset="0.24" stop-color="#910101"/>
<stop offset="0.31" stop-color="#A80101"/>
<stop offset="0.37" stop-color="#B90101"/>
<stop offset="0.45" stop-color="#C30101"/>
<stop offset="0.54" stop-color="#C70102"/>
<stop offset="0.7" stop-color="#C30102"/>
<stop offset="0.84" stop-color="#B90102"/>
<stop offset="0.97" stop-color="#A80102"/>
<stop offset="1" stop-color="#A30102"/>
</linearGradient>
<linearGradient id="paint1_linear_112_223" x1="272.021" y1="902.221" x2="718.03" y2="675.038" gradientUnits="userSpaceOnUse">
<stop stop-color="#100201"/>
<stop offset="0.08" stop-color="#320201"/>
<stop offset="0.13" stop-color="#4E0201"/>
<stop offset="0.18" stop-color="#720101"/>
<stop offset="0.24" stop-color="#910101"/>
<stop offset="0.31" stop-color="#A80101"/>
<stop offset="0.37" stop-color="#B90101"/>
<stop offset="0.45" stop-color="#C30101"/>
<stop offset="0.54" stop-color="#C70102"/>
<stop offset="0.7" stop-color="#C30102"/>
<stop offset="0.84" stop-color="#B90102"/>
<stop offset="0.97" stop-color="#A80102"/>
<stop offset="1" stop-color="#A30102"/>
</linearGradient>
<linearGradient id="paint2_linear_112_223" x1="-60.5339" y1="913.412" x2="623.025" y2="452.496" gradientUnits="userSpaceOnUse">
<stop stop-color="#100201"/>
<stop offset="0.08" stop-color="#320201"/>
<stop offset="0.13" stop-color="#4E0201"/>
<stop offset="0.18" stop-color="#720101"/>
<stop offset="0.24" stop-color="#910101"/>
<stop offset="0.31" stop-color="#A80101"/>
<stop offset="0.37" stop-color="#B90101"/>
<stop offset="0.45" stop-color="#C30101"/>
<stop offset="0.54" stop-color="#C70102"/>
<stop offset="0.6" stop-color="#C30102"/>
<stop offset="0.66" stop-color="#B90102"/>
<stop offset="0.71" stop-color="#A80102"/>
<stop offset="0.72" stop-color="#A30102"/>
<stop offset="0.76" stop-color="#920101"/>
<stop offset="0.82" stop-color="#660101"/>
<stop offset="0.89" stop-color="#2D0201"/>
<stop offset="0.94" stop-color="#1C0201"/>
<stop offset="1" stop-color="#100201"/>
</linearGradient>
<clipPath id="clip0_112_223">
<rect width="821" height="1294" fill="white"/>
</clipPath>
</defs>
</svg>
